<?xml version="1.0" encoding="UTF-8" standalone="no"?>
<!-- Created with Inkscape (http://www.inkscape.org/) -->

<svg
   xmlns:dc="http://purl.org/dc/elements/1.1/"
   xmlns:cc="http://creativecommons.org/ns#"
   xmlns:rdf="http://www.w3.org/1999/02/22-rdf-syntax-ns#"
   xmlns:svg="http://www.w3.org/2000/svg"
   xmlns="http://www.w3.org/2000/svg"
   xmlns:sodipodi="http://sodipodi.sourceforge.net/DTD/sodipodi-0.dtd"
   xmlns:inkscape="http://www.inkscape.org/namespaces/inkscape"
   width="58.40239mm"
   height="14.238248mm"
   viewBox="0 0 58.402388 14.238248"
   version="1.1"
   id="svg8"
   inkscape:version="0.92.5 (2060ec1f9f, 2020-04-08)"
   sodipodi:docname="ReStore-logo-with-text.svg">
  <defs
     id="defs2" />
  <sodipodi:namedview
     id="base"
     pagecolor="#ffffff"
     bordercolor="#666666"
     borderopacity="1.0"
     inkscape:pageopacity="0.0"
     inkscape:pageshadow="2"
     inkscape:zoom="3.959798"
     inkscape:cx="79.232411"
     inkscape:cy="8.0900819"
     inkscape:document-units="mm"
     inkscape:current-layer="g3907"
     showgrid="false"
     inkscape:snap-bbox="true"
     inkscape:snap-global="true"
     inkscape:window-width="1920"
     inkscape:window-height="1043"
     inkscape:window-x="1920"
     inkscape:window-y="0"
     inkscape:window-maximized="1"
     fit-margin-top="0"
     fit-margin-left="0"
     fit-margin-right="0"
     fit-margin-bottom="0" />
  <metadata
     id="metadata5">
    <rdf:RDF>
      <cc:Work
         rdf:about="">
        <dc:format>image/svg+xml</dc:format>
        <dc:type
           rdf:resource="http://purl.org/dc/dcmitype/StillImage" />
        <dc:title></dc:title>
      </cc:Work>
    </rdf:RDF>
  </metadata>
  <g
     inkscape:label="Layer 1"
     inkscape:groupmode="layer"
     id="layer1"
     transform="translate(-42.352269,-64.714118)">
    <text
       xml:space="preserve"
       style="font-style:normal;font-weight:normal;font-size:10.58333302px;line-height:1.25;font-family:sans-serif;letter-spacing:0px;word-spacing:0px;fill:#000000;fill-opacity:1;stroke:none;stroke-width:0.26458332"
       x="44.366741"
       y="74.097214"
       id="text3715"><tspan
         sodipodi:role="line"
         id="tspan3713"
         x="44.366741"
         y="74.097214"
         style="font-style:normal;font-variant:normal;font-weight:normal;font-stretch:normal;font-family:Z003;-inkscape-font-specification:Z003;stroke-width:0.26458332">R</tspan></text>
    <text
       xml:space="preserve"
       style="font-style:normal;font-weight:normal;font-size:10.58333302px;line-height:1.25;font-family:sans-serif;letter-spacing:0px;word-spacing:0px;fill:#000000;fill-opacity:1;stroke:none;stroke-width:0.26458332"
       x="50.48053"
       y="73.763123"
       id="text3719"><tspan
         sodipodi:role="line"
         id="tspan3717"
         x="50.48053"
         y="73.763123"
         style="font-style:normal;font-variant:normal;font-weight:normal;font-stretch:normal;font-size:5.64444447px;line-height:2;font-family:Z003;-inkscape-font-specification:Z003;stroke-width:0.26458332">S</tspan></text>
    <text
       xml:space="preserve"
       style="font-style:normal;font-weight:normal;font-size:10.58333302px;line-height:1.25;font-family:sans-serif;letter-spacing:0px;word-spacing:0px;fill:#000000;fill-opacity:1;stroke:none;stroke-width:0.26458332"
       x="39.6875"
       y="73.616074"
       id="text3745"><tspan
         sodipodi:role="line"
         id="tspan3743"
         x="39.6875"
         y="82.979843"
         style="stroke-width:0.26458332" /></text>
    <g
       id="g3907"
       transform="matrix(0.02996239,0,0,0.02996239,42.352269,63.909358)">
      <g
         id="g3844">
        <g
           id="g3842">
          <path
             id="path3828"
             d="m 175.041,493.746 c 19.538,5.321 39.792,8.118 60.203,8.317 l 0.447,-45.896 c -16.49,-0.163 -32.837,-2.418 -48.59,-6.708 z"
             inkscape:connector-curvature="0" />
          <path
             id="path3830"
             d="M 166.409,442.528 C 151.21,436.441 136.813,428.397 123.612,418.62 l -27.326,36.882 c 16.362,12.121 34.21,22.094 53.06,29.64 z"
             inkscape:connector-curvature="0" />
          <path
             id="path3832"
             d="M 64.884,347.757 C 57.748,332.989 52.546,317.341 49.422,301.245 L 4.36,309.99 c 3.88,19.981 10.337,39.407 19.195,57.736 z"
             inkscape:connector-curvature="0" />
          <path
             id="path3834"
             d="M 73.945,164.582 34.789,140.628 C 24.162,158.003 15.811,176.681 9.976,196.149 l 43.966,13.186 c 4.703,-15.692 11.435,-30.744 20.003,-44.753 z"
             inkscape:connector-curvature="0" />
          <path
             id="path3836"
             d="m 0,264.47 c 0,6.236 0.245,12.527 0.729,18.696 l 45.759,-3.577 c -0.388,-4.984 -0.587,-10.073 -0.587,-15.119 0,-11.389 1.004,-22.797 2.987,-33.908 L 3.7,222.502 C 1.246,236.266 0,250.385 0,264.47 Z"
             inkscape:connector-curvature="0" />
          <path
             id="path3838"
             d="m 75.493,438.186 31.322,-33.553 C 94.801,393.418 84.263,380.707 75.496,366.852 l -38.785,24.547 c 10.863,17.163 23.911,32.904 38.782,46.787 z"
             inkscape:connector-curvature="0" />
          <path
             id="path3840"
             d="m 377.291,239.448 69.162,84.621 c 3.211,3.926 8.41,3.926 11.619,0 l 69.162,-84.621 c 3.211,-3.926 1.699,-7.108 -3.371,-7.108 h -50.834 c -0.135,-1.004 -0.283,-2.007 -0.434,-3.011 -0.074,-0.493 -0.139,-0.988 -0.215,-1.478 -0.562,-3.629 -1.209,-7.23 -1.934,-10.802 -0.066,-0.336 -0.145,-0.67 -0.211,-1.007 -0.822,-3.969 -1.717,-7.922 -2.742,-11.842 l -0.045,0.012 c -2.311,-8.8 -5.154,-17.384 -8.418,-25.759 l 0.109,-0.043 C 451.78,159.478 441.981,141.519 430.01,125.028 l -0.127,0.092 c -5.312,-7.307 -10.998,-14.324 -17.084,-20.973 l 0.098,-0.088 C 399.161,89.056 383.551,75.855 366.501,64.827 l -0.088,0.135 C 358.86,60.069 351.026,55.58 342.921,51.556 l 0.053,-0.107 C 328.347,44.2 312.994,38.517 297.208,34.435 c -0.215,-0.055 -0.43,-0.11 -0.643,-0.165 -3.686,-0.942 -7.385,-1.824 -11.115,-2.586 l -0.002,0.016 c -8.764,-1.799 -17.715,-3.054 -26.797,-3.856 l 0.006,-0.061 c -2.763,-0.242 -5.536,-0.425 -8.311,-0.572 -0.633,-0.034 -1.267,-0.046 -1.897,-0.077 -3.014,-0.134 -6.047,-0.208 -9.091,-0.229 -0.588,-0.003 -1.166,-0.046 -1.753,-0.046 -0.315,0 -0.627,0.021 -0.942,0.021 -3.18,0.012 -6.347,0.092 -9.504,0.229 -1.135,0.049 -2.268,0.123 -3.403,0.187 -2.405,0.138 -4.801,0.312 -7.194,0.523 -1.046,0.092 -2.093,0.166 -3.136,0.272 -3.069,0.309 -6.126,0.686 -9.171,1.114 -1.19,0.166 -2.377,0.355 -3.562,0.539 -0.902,0.141 -1.812,0.26 -2.711,0.41 l 0.009,0.052 c -8.944,1.497 -17.767,3.477 -26.42,5.967 l -0.003,-0.009 c -0.098,0.027 -0.199,0.061 -0.297,0.092 -1.86,0.539 -3.708,1.117 -5.554,1.701 -1.047,0.331 -2.093,0.676 -3.134,1.022 -6.414,2.126 -12.723,4.528 -18.923,7.2 -0.56,0.242 -1.12,0.486 -1.677,0.734 -6.359,2.797 -12.592,5.872 -18.69,9.229 -0.692,0.38 -1.38,0.769 -2.069,1.154 -1.824,1.025 -3.641,2.06 -5.438,3.133 l 0.024,0.043 c -7.714,4.624 -15.202,9.679 -22.405,15.199 l -0.03,-0.04 c -0.943,0.722 -1.861,1.472 -2.794,2.209 -0.896,0.707 -1.802,1.404 -2.687,2.124 -2.482,2.02 -4.927,4.094 -7.338,6.221 -0.649,0.572 -1.282,1.153 -1.925,1.732 -2.212,1.995 -4.397,4.03 -6.545,6.117 -0.278,0.27 -0.569,0.521 -0.848,0.792 -0.058,0.059 -0.107,0.123 -0.165,0.181 -7.451,7.323 -14.431,15.129 -20.87,23.372 l 36.182,28.241 c 5.462,-7.001 11.42,-13.596 17.791,-19.765 2.298,-2.225 4.636,-4.395 7.022,-6.49 0.63,-0.554 1.279,-1.08 1.916,-1.625 2.313,-1.98 4.664,-3.904 7.057,-5.765 6.157,-4.789 12.546,-9.198 19.174,-13.167 l 0.003,0.006 c 1.319,-0.79 2.656,-1.545 3.993,-2.304 0.784,-0.443 1.57,-0.884 2.359,-1.318 1.441,-0.79 2.886,-1.57 4.345,-2.323 0.309,-0.159 0.625,-0.306 0.937,-0.465 2.904,-1.475 5.845,-2.87 8.819,-4.189 0.848,-0.376 1.695,-0.75 2.546,-1.114 1.441,-0.615 2.886,-1.227 4.342,-1.806 1.303,-0.52 2.622,-1.006 3.935,-1.496 1.903,-0.71 3.816,-1.389 5.741,-2.038 1.264,-0.425 2.534,-0.841 3.807,-1.239 1.19,-0.373 2.38,-0.747 3.58,-1.099 7.95,-2.316 16.068,-4.116 24.318,-5.386 0.817,-0.125 1.634,-0.254 2.454,-0.37 2.534,-0.355 5.08,-0.67 7.635,-0.927 0.765,-0.076 1.53,-0.131 2.298,-0.199 2.017,-0.178 4.033,-0.324 6.056,-0.44 0.872,-0.049 1.741,-0.104 2.613,-0.144 2.577,-0.11 5.159,-0.177 7.751,-0.187 0.691,-0.003 1.383,0.012 2.075,0.018 2.5,0.016 4.994,0.08 7.488,0.19 0.468,0.021 0.939,0.031 1.405,0.055 35.71,1.891 68.864,13.589 96.796,32.46 0.086,0.058 0.17,0.119 0.254,0.177 5.625,3.813 11.035,7.917 16.213,12.286 1.727,1.459 3.428,2.947 5.102,4.464 0.121,0.113 0.248,0.224 0.369,0.336 27.408,24.97 47.562,57.767 56.91,94.814 0.684,2.735 1.338,5.48 1.9,8.25 0.006,0.028 0.012,0.058 0.018,0.086 0.436,2.124 0.787,4.275 1.152,6.423 h -45.906 c -5.059,0.011 -6.567,3.193 -3.362,7.119 z"
             inkscape:connector-curvature="0" />
        </g>
      </g>
      <g
         id="g3846" />
      <g
         id="g3848" />
      <g
         id="g3850" />
      <g
         id="g3852" />
      <g
         id="g3854" />
      <g
         id="g3856" />
      <g
         id="g3858" />
      <g
         id="g3860" />
      <g
         id="g3862" />
      <g
         id="g3864" />
      <g
         id="g3866" />
      <g
         id="g3868" />
      <g
         id="g3870" />
      <g
         id="g3872" />
      <g
         id="g3874" />
      <text
         xml:space="preserve"
         style="font-style:normal;font-weight:normal;font-size:353.22061157px;line-height:1.25;font-family:sans-serif;letter-spacing:0px;word-spacing:0px;fill:#000000;fill-opacity:1;stroke:none;stroke-width:8.83051491"
         x="582.04089"
         y="363.80042"
         id="text59"><tspan
           sodipodi:role="line"
           id="tspan57"
           x="582.04089"
           y="363.80042"
           style="font-style:normal;font-variant:normal;font-weight:bold;font-stretch:normal;font-size:329.67254639px;font-family:'Source Code Pro';-inkscape-font-specification:'Source Code Pro, Bold';font-variant-ligatures:normal;font-variant-caps:normal;font-variant-numeric:normal;font-feature-settings:normal;text-align:start;writing-mode:lr-tb;text-anchor:start;stroke-width:8.83051491">ReStore</tspan></text>
    </g>
  </g>
</svg>
